<svg id="graph-pretty" width="694" xmlns="http://www.w3.org/2000/svg" height="471" viewBox="-50 -10 694 471" role="graphics-document document" aria-roledescription="sequence"><g><rect x="444" y="385" fill="#eaeaea" stroke="#666" width="150" height="65" name="DB" rx="3" ry="3" class="actor actor-bottom"></rect><text x="519" y="417.5" dominant-baseline="central" alignment-baseline="central" class="actor actor-box" style="text-anchor: middle; font-size: 16px; font-weight: 400; font-family: Inter, system-ui, -apple-system, &quot;Segoe UI&quot;, Roboto, &quot;Helvetica Neue&quot;, Arial, sans-serif;"><tspan x="519" dy="0">Database</tspan></text></g><g><rect x="222" y="385" fill="#eaeaea" stroke="#666" width="150" height="65" name="A" rx="3" ry="3" class="actor actor-bottom"></rect><text x="297" y="417.5" dominant-baseline="central" alignment-baseline="central" class="actor actor-box" style="text-anchor: middle; font-size: 16px; font-weight: 400; font-family: Inter, system-ui, -apple-system, &quot;Segoe UI&quot;, Roboto, &quot;Helvetica Neue&quot;, Arial, sans-serif;"><tspan x="297" dy="0">API</tspan></text></g><g><rect x="0" y="385" fill="#eaeaea" stroke="#666" width="150" height="65" name="U" rx="3" ry="3" class="actor actor-bottom"></rect><text x="75" y="417.5" dominant-baseline="central" alignment-baseline="central" class="actor actor-box" style="text-anchor: middle; font-size: 16px; font-weight: 400; font-family: Inter, system-ui, -apple-system, &quot;Segoe UI&quot;, Roboto, &quot;Helvetica Neue&quot;, Arial, sans-serif;"><tspan x="75" dy="0">User</tspan></text></g><g><line id="actor2" x1="519" y1="65" x2="519" y2="385" class="actor-line 200" stroke-width="0.5px" stroke="#999" name="DB" data-et="life-line" data-id="DB"></line><g id="root-2" data-et="participant" data-type="participant" data-id="DB"><rect x="444" y="0" fill="#eaeaea" stroke="#666" width="150" height="65" name="DB" rx="3" ry="3" class="actor actor-top"></rect><text x="519" y="32.5" dominant-baseline="central" alignment-baseline="central" class="actor actor-box" style="text-anchor: middle; font-size: 16px; font-weight: 400; font-family: Inter, system-ui, -apple-system, &quot;Segoe UI&quot;, Roboto, &quot;Helvetica Neue&quot;, Arial, sans-serif;"><tspan x="519" dy="0">Database</tspan></text></g></g><g><line id="actor1" x1="297" y1="65" x2="297" y2="385" class="actor-line 200" stroke-width="0.5px" stroke="#999" name="A" data-et="life-line" data-id="A"></line><g id="root-1" data-et="participant" data-type="participant" data-id="A"><rect x="222" y="0" fill="#eaeaea" stroke="#666" width="150" height="65" name="A" rx="3" ry="3" class="actor actor-top"></rect><text x="297" y="32.5" dominant-baseline="central" alignment-baseline="central" class="actor actor-box" style="text-anchor: middle; font-size: 16px; font-weight: 400; font-family: Inter, system-ui, -apple-system, &quot;Segoe UI&quot;, Roboto, &quot;Helvetica Neue&quot;, Arial, sans-serif;"><tspan x="297" dy="0">API</tspan></text></g></g><g><line id="actor0" x1="75" y1="65" x2="75" y2="385" class="actor-line 200" stroke-width="0.5px" stroke="#999" name="U" data-et="life-line" data-id="U"></line><g id="root-0" data-et="participant" data-type="participant" data-id="U"><rect x="0" y="0" fill="#eaeaea" stroke="#666" width="150" height="65" name="U" rx="3" ry="3" class="actor actor-top"></rect><text x="75" y="32.5" dominant-baseline="central" alignment-baseline="central" class="actor actor-box" style="text-anchor: middle; font-size: 16px; font-weight: 400; font-family: Inter, system-ui, -apple-system, &quot;Segoe UI&quot;, Roboto, &quot;Helvetica Neue&quot;, Arial, sans-serif;"><tspan x="75" dy="0">User</tspan></text></g></g><style>#graph-pretty{font-family:"Inter",system-ui,-apple-system,"Segoe UI",Roboto,"Helvetica Neue",Arial,sans-serif;font-size:14px;fill:#1E293B;}@keyframes edge-animation-frame{from{stroke-dashoffset:0;}}@keyframes dash{to{stroke-dashoffset:0;}}#graph-pretty .edge-animation-slow{stroke-dasharray:9,5!important;stroke-dashoffset:900;animation:dash 50s linear infinite;stroke-linecap:round;}#graph-pretty .edge-animation-fast{stroke-dasharray:9,5!important;stroke-dashoffset:900;animation:dash 20s linear infinite;stroke-linecap:round;}#graph-pretty .error-icon{fill:#F0FDFA;}#graph-pretty .error-text{fill:#0f0205;stroke:#0f0205;}#graph-pretty .edge-thickness-normal{stroke-width:1px;}#graph-pretty .edge-thickness-thick{stroke-width:3.5px;}#graph-pretty .edge-pattern-solid{stroke-dasharray:0;}#graph-pretty .edge-thickness-invisible{stroke-width:0;fill:none;}#graph-pretty .edge-pattern-dashed{stroke-dasharray:3;}#graph-pretty .edge-pattern-dotted{stroke-dasharray:2;}#graph-pretty .marker{fill:#94A3B8;stroke:#94A3B8;}#graph-pretty .marker.cross{stroke:#94A3B8;}#graph-pretty svg{font-family:"Inter",system-ui,-apple-system,"Segoe UI",Roboto,"Helvetica Neue",Arial,sans-serif;font-size:14px;}#graph-pretty p{margin:0;}#graph-pretty .actor{stroke:#A5B4FC;fill:#EEF2FF;stroke-width:1;}#graph-pretty rect.actor.outer-path[data-look="neo"]{filter:drop-shadow( 1px 2px 2px rgba(185,185,185,1));}#graph-pretty rect.note[data-look="neo"]{stroke:#FCD34D;fill:#FEF9C3;filter:drop-shadow( 1px 2px 2px rgba(185,185,185,1));}#graph-pretty text.actor&gt;tspan{fill:#1E293B;stroke:none;}#graph-pretty .actor-line{stroke:#94A3B8;}#graph-pretty .innerArc{stroke-width:1.5;stroke-dasharray:none;}#graph-pretty .messageLine0{stroke-width:1.5;stroke-dasharray:none;stroke:#475569;}#graph-pretty .messageLine1{stroke-width:1.5;stroke-dasharray:2,2;stroke:#475569;}#graph-pretty [id$="-arrowhead"] path{fill:#475569;stroke:#475569;}#graph-pretty .sequenceNumber{fill:#6b5c47;}#graph-pretty [id$="-sequencenumber"]{fill:#475569;}#graph-pretty [id$="-crosshead"] path{fill:#475569;stroke:#475569;}#graph-pretty .messageText{fill:#1E293B;stroke:none;}#graph-pretty .labelBox{stroke:#C7D2FE;fill:#EEF2FF;filter:none;}#graph-pretty .labelText,#graph-pretty .labelText&gt;tspan{fill:#1E293B;stroke:none;}#graph-pretty .loopText,#graph-pretty .loopText&gt;tspan{fill:#1E293B;stroke:none;}#graph-pretty .loopLine{stroke-width:2px;stroke-dasharray:2,2;stroke:#C7D2FE;fill:#C7D2FE;}#graph-pretty .note{stroke:#FCD34D;fill:#FEF9C3;}#graph-pretty .noteText,#graph-pretty .noteText&gt;tspan{fill:#713F12;stroke:none;font-weight:normal;}#graph-pretty .activation0{fill:#E0E7FF;stroke:#A5B4FC;}#graph-pretty .activation1{fill:#E0E7FF;stroke:#A5B4FC;}#graph-pretty .activation2{fill:#E0E7FF;stroke:#A5B4FC;}#graph-pretty .actorPopupMenu{position:absolute;}#graph-pretty .actorPopupMenuPanel{position:absolute;fill:#EEF2FF;box-shadow:0px 8px 16px 0px rgba(0,0,0,0.2);filter:drop-shadow(3px 5px 2px rgb(0 0 0 / 0.4));}#graph-pretty .actor-man circle,#graph-pretty line{fill:#EEF2FF;stroke-width:2px;}#graph-pretty g rect.rect{filter:drop-shadow( 1px 2px 2px rgba(185,185,185,1));stroke:#A5B4FC;}#graph-pretty .node .neo-node{stroke:#A5B4FC;}#graph-pretty [data-look="neo"].node rect,#graph-pretty [data-look="neo"].cluster rect,#graph-pretty [data-look="neo"].node polygon{stroke:url(#graph-pretty-gradient);filter:drop-shadow( 1px 2px 2px rgba(185,185,185,1));}#graph-pretty [data-look="neo"].node path{stroke:url(#graph-pretty-gradient);stroke-width:1px;}#graph-pretty [data-look="neo"].node .outer-path{filter:drop-shadow( 1px 2px 2px rgba(185,185,185,1));}#graph-pretty [data-look="neo"].node .neo-line path{stroke:#A5B4FC;filter:none;}#graph-pretty [data-look="neo"].node circle{stroke:url(#graph-pretty-gradient);filter:drop-shadow( 1px 2px 2px rgba(185,185,185,1));}#graph-pretty [data-look="neo"].node circle .state-start{fill:#000000;}#graph-pretty [data-look="neo"].icon-shape .icon{fill:url(#graph-pretty-gradient);filter:drop-shadow( 1px 2px 2px rgba(185,185,185,1));}#graph-pretty [data-look="neo"].icon-shape .icon-neo path{stroke:url(#graph-pretty-gradient);filter:drop-shadow( 1px 2px 2px rgba(185,185,185,1));}#graph-pretty :root{--mermaid-font-family:"Inter",system-ui,-apple-system,"Segoe UI",Roboto,"Helvetica Neue",Arial,sans-serif;}</style><g></g><defs><symbol id="graph-pretty-computer" width="24" height="24"><path transform="scale(.5)" d="M2 2v13h20v-13h-20zm18 11h-16v-9h16v9zm-10.228 6l.466-1h3.524l.467 1h-4.457zm14.228 3h-24l2-6h2.104l-1.33 4h18.45l-1.297-4h2.073l2 6zm-5-10h-14v-7h14v7z"></path></symbol></defs><defs><symbol id="graph-pretty-database" fill-rule="evenodd" clip-rule="evenodd"><path transform="scale(.5)" d="M12.258.001l.256.004.255.005.253.008.251.01.249.012.247.015.246.016.242.019.241.02.239.023.236.024.233.027.231.028.229.031.225.032.223.034.22.036.217.038.214.04.211.041.208.043.205.045.201.046.198.048.194.05.191.051.187.053.183.054.18.056.175.057.172.059.168.06.163.061.16.063.155.064.15.066.074.033.073.033.071.034.07.034.069.035.068.035.067.035.066.035.064.036.064.036.062.036.06.036.06.037.058.037.058.037.055.038.055.038.053.038.052.038.051.039.05.039.048.039.047.039.045.04.044.04.043.04.041.04.04.041.039.041.037.041.036.041.034.041.033.042.032.042.03.042.029.042.027.042.026.043.024.043.023.043.021.043.02.043.018.044.017.043.015.044.013.044.012.044.011.045.009.044.007.045.006.045.004.045.002.045.001.045v17l-.001.045-.002.045-.004.045-.006.045-.007.045-.009.044-.011.045-.012.044-.013.044-.015.044-.017.043-.018.044-.02.043-.021.043-.023.043-.024.043-.026.043-.027.042-.029.042-.03.042-.032.042-.033.042-.034.041-.036.041-.037.041-.039.041-.04.041-.041.04-.043.04-.044.04-.045.04-.047.039-.048.039-.05.039-.051.039-.052.038-.053.038-.055.038-.055.038-.058.037-.058.037-.06.037-.06.036-.062.036-.064.036-.064.036-.066.035-.067.035-.068.035-.069.035-.07.034-.071.034-.073.033-.074.033-.15.066-.155.064-.16.063-.163.061-.168.06-.172.059-.175.057-.18.056-.183.054-.187.053-.191.051-.194.05-.198.048-.201.046-.205.045-.208.043-.211.041-.214.04-.217.038-.22.036-.223.034-.225.032-.229.031-.231.028-.233.027-.236.024-.239.023-.241.02-.242.019-.246.016-.247.015-.249.012-.251.01-.253.008-.255.005-.256.004-.258.001-.258-.001-.256-.004-.255-.005-.253-.008-.251-.01-.249-.012-.247-.015-.245-.016-.243-.019-.241-.02-.238-.023-.236-.024-.234-.027-.231-.028-.228-.031-.226-.032-.223-.034-.22-.036-.217-.038-.214-.04-.211-.041-.208-.043-.204-.045-.201-.046-.198-.048-.195-.05-.19-.051-.187-.053-.184-.054-.179-.056-.176-.057-.172-.059-.167-.06-.164-.061-.159-.063-.155-.064-.151-.066-.074-.033-.072-.033-.072-.034-.07-.034-.069-.035-.068-.035-.067-.035-.066-.035-.064-.036-.063-.036-.062-.036-.061-.036-.06-.037-.058-.037-.057-.037-.056-.038-.055-.038-.053-.038-.052-.038-.051-.039-.049-.039-.049-.039-.046-.039-.046-.04-.044-.04-.043-.04-.041-.04-.04-.041-.039-.041-.037-.041-.036-.041-.034-.041-.033-.042-.032-.042-.03-.042-.029-.042-.027-.042-.026-.043-.024-.043-.023-.043-.021-.043-.02-.043-.018-.044-.017-.043-.015-.044-.013-.044-.012-.044-.011-.045-.009-.044-.007-.045-.006-.045-.004-.045-.002-.045-.001-.045v-17l.001-.045.002-.045.004-.045.006-.045.007-.045.009-.044.011-.045.012-.044.013-.044.015-.044.017-.043.018-.044.02-.043.021-.043.023-.043.024-.043.026-.043.027-.042.029-.042.03-.042.032-.042.033-.042.034-.041.036-.041.037-.041.039-.041.04-.041.041-.04.043-.04.044-.04.046-.04.046-.039.049-.039.049-.039.051-.039.052-.038.053-.038.055-.038.056-.038.057-.037.058-.037.06-.037.061-.036.062-.036.063-.036.064-.036.066-.035.067-.035.068-.035.069-.035.07-.034.072-.034.072-.033.074-.033.151-.066.155-.064.159-.063.164-.061.167-.06.172-.059.176-.057.179-.056.184-.054.187-.053.19-.051.195-.05.198-.048.201-.046.204-.045.208-.043.211-.041.214-.04.217-.038.22-.036.223-.034.226-.032.228-.031.231-.028.234-.027.236-.024.238-.023.241-.02.243-.019.245-.016.247-.015.249-.012.251-.01.253-.008.255-.005.256-.004.258-.001.258.001zm-9.258 20.499v.01l.001.021.003.021.004.022.005.021.006.022.007.022.009.023.01.022.011.023.012.023.013.023.015.023.016.024.017.023.018.024.019.024.021.024.022.025.023.024.024.025.052.049.056.05.061.051.066.051.07.051.075.051.079.052.084.052.088.052.092.052.097.052.102.051.105.052.11.052.114.051.119.051.123.051.127.05.131.05.135.05.139.048.144.049.147.047.152.047.155.047.16.045.163.045.167.043.171.043.176.041.178.041.183.039.187.039.19.037.194.035.197.035.202.033.204.031.209.03.212.029.216.027.219.025.222.024.226.021.23.02.233.018.236.016.24.015.243.012.246.01.249.008.253.005.256.004.259.001.26-.001.257-.004.254-.005.25-.008.247-.011.244-.012.241-.014.237-.016.233-.018.231-.021.226-.021.224-.024.22-.026.216-.027.212-.028.21-.031.205-.031.202-.034.198-.034.194-.036.191-.037.187-.039.183-.04.179-.04.175-.042.172-.043.168-.044.163-.045.16-.046.155-.046.152-.047.148-.048.143-.049.139-.049.136-.05.131-.05.126-.05.123-.051.118-.052.114-.051.11-.052.106-.052.101-.052.096-.052.092-.052.088-.053.083-.051.079-.052.074-.052.07-.051.065-.051.06-.051.056-.05.051-.05.023-.024.023-.025.021-.024.02-.024.019-.024.018-.024.017-.024.015-.023.014-.024.013-.023.012-.023.01-.023.01-.022.008-.022.006-.022.006-.022.004-.022.004-.021.001-.021.001-.021v-4.127l-.077.055-.08.053-.083.054-.085.053-.087.052-.09.052-.093.051-.095.05-.097.05-.1.049-.102.049-.105.048-.106.047-.109.047-.111.046-.114.045-.115.045-.118.044-.12.043-.122.042-.124.042-.126.041-.128.04-.13.04-.132.038-.134.038-.135.037-.138.037-.139.035-.142.035-.143.034-.144.033-.147.032-.148.031-.15.03-.151.03-.153.029-.154.027-.156.027-.158.026-.159.025-.161.024-.162.023-.163.022-.165.021-.166.02-.167.019-.169.018-.169.017-.171.016-.173.015-.173.014-.175.013-.175.012-.177.011-.178.01-.179.008-.179.008-.181.006-.182.005-.182.004-.184.003-.184.002h-.37l-.184-.002-.184-.003-.182-.004-.182-.005-.181-.006-.179-.008-.179-.008-.178-.01-.176-.011-.176-.012-.175-.013-.173-.014-.172-.015-.171-.016-.17-.017-.169-.018-.167-.019-.166-.02-.165-.021-.163-.022-.162-.023-.161-.024-.159-.025-.157-.026-.156-.027-.155-.027-.153-.029-.151-.03-.15-.03-.148-.031-.146-.032-.145-.033-.143-.034-.141-.035-.14-.035-.137-.037-.136-.037-.134-.038-.132-.038-.13-.04-.128-.04-.126-.041-.124-.042-.122-.042-.12-.044-.117-.043-.116-.045-.113-.045-.112-.046-.109-.047-.106-.047-.105-.048-.102-.049-.1-.049-.097-.05-.095-.05-.093-.052-.09-.051-.087-.052-.085-.053-.083-.054-.08-.054-.077-.054v4.127zm0-5.654v.011l.001.021.003.021.004.021.005.022.006.022.007.022.009.022.01.022.011.023.012.023.013.023.015.024.016.023.017.024.018.024.019.024.021.024.022.024.023.025.024.024.052.05.056.05.061.05.066.051.07.051.075.052.079.051.084.052.088.052.092.052.097.052.102.052.105.052.11.051.114.051.119.052.123.05.127.051.131.05.135.049.139.049.144.048.147.048.152.047.155.046.16.045.163.045.167.044.171.042.176.042.178.04.183.04.187.038.19.037.194.036.197.034.202.033.204.032.209.03.212.028.216.027.219.025.222.024.226.022.23.02.233.018.236.016.24.014.243.012.246.01.249.008.253.006.256.003.259.001.26-.001.257-.003.254-.006.25-.008.247-.01.244-.012.241-.015.237-.016.233-.018.231-.02.226-.022.224-.024.22-.025.216-.027.212-.029.21-.03.205-.032.202-.033.198-.035.194-.036.191-.037.187-.039.183-.039.179-.041.175-.042.172-.043.168-.044.163-.045.16-.045.155-.047.152-.047.148-.048.143-.048.139-.05.136-.049.131-.05.126-.051.123-.051.118-.051.114-.052.11-.052.106-.052.101-.052.096-.052.092-.052.088-.052.083-.052.079-.052.074-.051.07-.052.065-.051.06-.05.056-.051.051-.049.023-.025.023-.024.021-.025.02-.024.019-.024.018-.024.017-.024.015-.023.014-.023.013-.024.012-.022.01-.023.01-.023.008-.022.006-.022.006-.022.004-.021.004-.022.001-.021.001-.021v-4.139l-.077.054-.08.054-.083.054-.085.052-.087.053-.09.051-.093.051-.095.051-.097.05-.1.049-.102.049-.105.048-.106.047-.109.047-.111.046-.114.045-.115.044-.118.044-.12.044-.122.042-.124.042-.126.041-.128.04-.13.039-.132.039-.134.038-.135.037-.138.036-.139.036-.142.035-.143.033-.144.033-.147.033-.148.031-.15.03-.151.03-.153.028-.154.028-.156.027-.158.026-.159.025-.161.024-.162.023-.163.022-.165.021-.166.02-.167.019-.169.018-.169.017-.171.016-.173.015-.173.014-.175.013-.175.012-.177.011-.178.009-.179.009-.179.007-.181.007-.182.005-.182.004-.184.003-.184.002h-.37l-.184-.002-.184-.003-.182-.004-.182-.005-.181-.007-.179-.007-.179-.009-.178-.009-.176-.011-.176-.012-.175-.013-.173-.014-.172-.015-.171-.016-.17-.017-.169-.018-.167-.019-.166-.02-.165-.021-.163-.022-.162-.023-.161-.024-.159-.025-.157-.026-.156-.027-.155-.028-.153-.028-.151-.03-.15-.03-.148-.031-.146-.033-.145-.033-.143-.033-.141-.035-.14-.036-.137-.036-.136-.037-.134-.038-.132-.039-.13-.039-.128-.04-.126-.041-.124-.042-.122-.043-.12-.043-.117-.044-.116-.044-.113-.046-.112-.046-.109-.046-.106-.047-.105-.048-.102-.049-.1-.049-.097-.05-.095-.051-.093-.051-.09-.051-.087-.053-.085-.052-.083-.054-.08-.054-.077-.054v4.139zm0-5.666v.011l.001.02.003.022.004.021.005.022.006.021.007.022.009.023.01.022.011.023.012.023.013.023.015.023.016.024.017.024.018.023.019.024.021.025.022.024.023.024.024.025.052.05.056.05.061.05.066.051.07.051.075.052.079.051.084.052.088.052.092.052.097.052.102.052.105.051.11.052.114.051.119.051.123.051.127.05.131.05.135.05.139.049.144.048.147.048.152.047.155.046.16.045.163.045.167.043.171.043.176.042.178.04.183.04.187.038.19.037.194.036.197.034.202.033.204.032.209.03.212.028.216.027.219.025.222.024.226.021.23.02.233.018.236.017.24.014.243.012.246.01.249.008.253.006.256.003.259.001.26-.001.257-.003.254-.006.25-.008.247-.01.244-.013.241-.014.237-.016.233-.018.231-.02.226-.022.224-.024.22-.025.216-.027.212-.029.21-.03.205-.032.202-.033.198-.035.194-.036.191-.037.187-.039.183-.039.179-.041.175-.042.172-.043.168-.044.163-.045.16-.045.155-.047.152-.047.148-.048.143-.049.139-.049.136-.049.131-.051.126-.05.123-.051.118-.052.114-.051.11-.052.106-.052.101-.052.096-.052.092-.052.088-.052.083-.052.079-.052.074-.052.07-.051.065-.051.06-.051.056-.05.051-.049.023-.025.023-.025.021-.024.02-.024.019-.024.018-.024.017-.024.015-.023.014-.024.013-.023.012-.023.01-.022.01-.023.008-.022.006-.022.006-.022.004-.022.004-.021.001-.021.001-.021v-4.153l-.077.054-.08.054-.083.053-.085.053-.087.053-.09.051-.093.051-.095.051-.097.05-.1.049-.102.048-.105.048-.106.048-.109.046-.111.046-.114.046-.115.044-.118.044-.12.043-.122.043-.124.042-.126.041-.128.04-.13.039-.132.039-.134.038-.135.037-.138.036-.139.036-.142.034-.143.034-.144.033-.147.032-.148.032-.15.03-.151.03-.153.028-.154.028-.156.027-.158.026-.159.024-.161.024-.162.023-.163.023-.165.021-.166.02-.167.019-.169.018-.169.017-.171.016-.173.015-.173.014-.175.013-.175.012-.177.01-.178.01-.179.009-.179.007-.181.006-.182.006-.182.004-.184.003-.184.001-.185.001-.185-.001-.184-.001-.184-.003-.182-.004-.182-.006-.181-.006-.179-.007-.179-.009-.178-.01-.176-.01-.176-.012-.175-.013-.173-.014-.172-.015-.171-.016-.17-.017-.169-.018-.167-.019-.166-.02-.165-.021-.163-.023-.162-.023-.161-.024-.159-.024-.157-.026-.156-.027-.155-.028-.153-.028-.151-.03-.15-.03-.148-.032-.146-.032-.145-.033-.143-.034-.141-.034-.14-.036-.137-.036-.136-.037-.134-.038-.132-.039-.13-.039-.128-.041-.126-.041-.124-.041-.122-.043-.12-.043-.117-.044-.116-.044-.113-.046-.112-.046-.109-.046-.106-.048-.105-.048-.102-.048-.1-.05-.097-.049-.095-.051-.093-.051-.09-.052-.087-.052-.085-.053-.083-.053-.08-.054-.077-.054v4.153zm8.74-8.179l-.257.004-.254.005-.25.008-.247.011-.244.012-.241.014-.237.016-.233.018-.231.021-.226.022-.224.023-.22.026-.216.027-.212.028-.21.031-.205.032-.202.033-.198.034-.194.036-.191.038-.187.038-.183.04-.179.041-.175.042-.172.043-.168.043-.163.045-.16.046-.155.046-.152.048-.148.048-.143.048-.139.049-.136.05-.131.05-.126.051-.123.051-.118.051-.114.052-.11.052-.106.052-.101.052-.096.052-.092.052-.088.052-.083.052-.079.052-.074.051-.07.052-.065.051-.06.05-.056.05-.051.05-.023.025-.023.024-.021.024-.02.025-.019.024-.018.024-.017.023-.015.024-.014.023-.013.023-.012.023-.01.023-.01.022-.008.022-.006.023-.006.021-.004.022-.004.021-.001.021-.001.021.001.021.001.021.004.021.004.022.006.021.006.023.008.022.01.022.01.023.012.023.013.023.014.023.015.024.017.023.018.024.019.024.02.025.021.024.023.024.023.025.051.05.056.05.06.05.065.051.07.052.074.051.079.052.083.052.088.052.092.052.096.052.101.052.106.052.11.052.114.052.118.051.123.051.126.051.131.05.136.05.139.049.143.048.148.048.152.048.155.046.16.046.163.045.168.043.172.043.175.042.179.041.183.04.187.038.191.038.194.036.198.034.202.033.205.032.21.031.212.028.216.027.22.026.224.023.226.022.231.021.233.018.237.016.241.014.244.012.247.011.25.008.254.005.257.004.26.001.26-.001.257-.004.254-.005.25-.008.247-.011.244-.012.241-.014.237-.016.233-.018.231-.021.226-.022.224-.023.22-.026.216-.027.212-.028.21-.031.205-.032.202-.033.198-.034.194-.036.191-.038.187-.038.183-.04.179-.041.175-.042.172-.043.168-.043.163-.045.16-.046.155-.046.152-.048.148-.048.143-.048.139-.049.136-.05.131-.05.126-.051.123-.051.118-.051.114-.052.11-.052.106-.052.101-.052.096-.052.092-.052.088-.052.083-.052.079-.052.074-.051.07-.052.065-.051.06-.05.056-.05.051-.05.023-.025.023-.024.021-.024.02-.025.019-.024.018-.024.017-.023.015-.024.014-.023.013-.023.012-.023.01-.023.01-.022.008-.022.006-.023.006-.021.004-.022.004-.021.001-.021.001-.021-.001-.021-.001-.021-.004-.021-.004-.022-.006-.021-.006-.023-.008-.022-.01-.022-.01-.023-.012-.023-.013-.023-.014-.023-.015-.024-.017-.023-.018-.024-.019-.024-.02-.025-.021-.024-.023-.024-.023-.025-.051-.05-.056-.05-.06-.05-.065-.051-.07-.052-.074-.051-.079-.052-.083-.052-.088-.052-.092-.052-.096-.052-.101-.052-.106-.052-.11-.052-.114-.052-.118-.051-.123-.051-.126-.051-.131-.05-.136-.05-.139-.049-.143-.048-.148-.048-.152-.048-.155-.046-.16-.046-.163-.045-.168-.043-.172-.043-.175-.042-.179-.041-.183-.04-.187-.038-.191-.038-.194-.036-.198-.034-.202-.033-.205-.032-.21-.031-.212-.028-.216-.027-.22-.026-.224-.023-.226-.022-.231-.021-.233-.018-.237-.016-.241-.014-.244-.012-.247-.011-.25-.008-.254-.005-.257-.004-.26-.001-.26.001z"></path></symbol></defs><defs><symbol id="graph-pretty-clock" width="24" height="24"><path transform="scale(.5)" d="M12 2c5.514 0 10 4.486 10 10s-4.486 10-10 10-10-4.486-10-10 4.486-10 10-10zm0-2c-6.627 0-12 5.373-12 12s5.373 12 12 12 12-5.373 12-12-5.373-12-12-12zm5.848 12.459c.202.038.202.333.001.372-1.907.361-6.045 1.111-6.547 1.111-.719 0-1.301-.582-1.301-1.301 0-.512.77-5.447 1.125-7.445.034-.192.312-.181.343.014l.985 6.238 5.394 1.011z"></path></symbol></defs><defs><marker id="graph-pretty-arrowhead" refX="7.9" refY="5" markerUnits="userSpaceOnUse" markerWidth="12" markerHeight="12" orient="auto-start-reverse"><path d="M -1 0 L 10 5 L 0 10 z"></path></marker></defs><defs><marker id="graph-pretty-crosshead" markerWidth="15" markerHeight="8" orient="auto" refX="4" refY="4.5"><path fill="none" stroke="#000000" stroke-width="1pt" d="M 1,2 L 6,7 M 6,2 L 1,7" style="stroke-dasharray: 0, 0;"></path></marker></defs><defs><marker id="graph-pretty-filled-head" refX="15.5" refY="7" markerWidth="20" markerHeight="28" orient="auto"><path d="M 18,7 L9,13 L14,7 L9,1 Z"></path></marker></defs><defs><marker id="graph-pretty-sequencenumber" refX="15" refY="15" markerWidth="60" markerHeight="40" orient="auto"><circle cx="15" cy="15" r="6"></circle></marker></defs><defs><marker id="graph-pretty-solidTopArrowHead" refX="7.9" refY="7.25" markerUnits="userSpaceOnUse" markerWidth="12" markerHeight="12" orient="auto-start-reverse"><path d="M 0 0 L 10 8 L 0 8 z"></path></marker></defs><defs><marker id="graph-pretty-solidBottomArrowHead" refX="7.9" refY="0.75" markerUnits="userSpaceOnUse" markerWidth="12" markerHeight="12" orient="auto-start-reverse"><path d="M 0 0 L 10 0 L 0 8 z"></path></marker></defs><defs><marker id="graph-pretty-stickTopArrowHead" refX="7.5" refY="7" markerUnits="userSpaceOnUse" markerWidth="12" markerHeight="12" orient="auto-start-reverse"><path d="M 0 0 L 7 7" stroke="black" stroke-width="1.5" fill="none"></path></marker></defs><defs><marker id="graph-pretty-stickBottomArrowHead" refX="7.5" refY="0" markerUnits="userSpaceOnUse" markerWidth="12" markerHeight="12" orient="auto-start-reverse"><path d="M 0 7 L 7 0" stroke="black" stroke-width="1.5" fill="none"></path></marker></defs><g data-et="note" data-id="i4"><rect x="39" y="305" fill="#EDF2AE" stroke="#666" width="294" height="48" class="note"></rect><text x="186" y="313" text-anchor="middle" dominant-baseline="middle" alignment-baseline="middle" class="noteText" dy="1em" style="font-family: Inter, system-ui, -apple-system, &quot;Segoe UI&quot;, Roboto, &quot;Helvetica Neue&quot;, Arial, sans-serif; font-size: 16px; font-weight: 400;"><tspan x="186">Session established</tspan></text></g><text x="185" y="80" text-anchor="middle" dominant-baseline="middle" alignment-baseline="middle" class="messageText" dy="1em" style="font-family: Inter, system-ui, -apple-system, &quot;Segoe UI&quot;, Roboto, &quot;Helvetica Neue&quot;, Arial, sans-serif; font-size: 16px; font-weight: 400;">POST /login</text><line x1="76" y1="121" x2="293" y2="121" class="messageLine0" data-et="message" data-id="i0" data-from="U" data-to="A" stroke-width="2" stroke="none" marker-end="url(#graph-pretty-arrowhead)" style="fill: none;"></line><text x="407" y="136" text-anchor="middle" dominant-baseline="middle" alignment-baseline="middle" class="messageText" dy="1em" style="font-family: Inter, system-ui, -apple-system, &quot;Segoe UI&quot;, Roboto, &quot;Helvetica Neue&quot;, Arial, sans-serif; font-size: 16px; font-weight: 400;">SELECT user</text><line x1="298" y1="177" x2="515" y2="177" class="messageLine0" data-et="message" data-id="i1" data-from="A" data-to="DB" stroke-width="2" stroke="none" marker-end="url(#graph-pretty-arrowhead)" style="fill: none;"></line><text x="410" y="192" text-anchor="middle" dominant-baseline="middle" alignment-baseline="middle" class="messageText" dy="1em" style="font-family: Inter, system-ui, -apple-system, &quot;Segoe UI&quot;, Roboto, &quot;Helvetica Neue&quot;, Arial, sans-serif; font-size: 16px; font-weight: 400;">user record</text><line x1="518" y1="233" x2="301" y2="233" class="messageLine1" data-et="message" data-id="i2" data-from="DB" data-to="A" stroke-width="2" stroke="none" marker-end="url(#graph-pretty-arrowhead)" style="stroke-dasharray: 3, 3; fill: none;"></line><text x="188" y="248" text-anchor="middle" dominant-baseline="middle" alignment-baseline="middle" class="messageText" dy="1em" style="font-family: Inter, system-ui, -apple-system, &quot;Segoe UI&quot;, Roboto, &quot;Helvetica Neue&quot;, Arial, sans-serif; font-size: 16px; font-weight: 400;">JWT token</text><line x1="296" y1="289" x2="79" y2="289" class="messageLine1" data-et="message" data-id="i3" data-from="A" data-to="U" stroke-width="2" stroke="none" marker-end="url(#graph-pretty-arrowhead)" style="stroke-dasharray: 3, 3; fill: none;"></line><style>
  .mp-root svg { overflow: visible; }

  /* ノード: 柔らかい影 + 繊細な枠線 */
  .node rect,
  .node polygon,
  .node circle,
  .node ellipse,
  .node path {
    filter:
      drop-shadow(0 1px 2px rgba(15, 23, 42, 0.05))
      drop-shadow(0 6px 14px rgba(15, 23, 42, 0.06));
    stroke-width: 1.2px !important;
  }

  /* 四角ノードは角丸 */
  .node rect { rx: 12; ry: 12; }

  /* ===== flowchart: 形状ごとに色分け ===== */
  /* 長方形 → インディゴ */
  .flowchart g.node.default rect.basic.label-container {
    fill: #EEF2FF !important;
    stroke: #A5B4FC !important;
    stroke-width: 1.5px !important;
  }
  /* ひし形（判断） → 琥珀 */
  .flowchart g.node.default polygon.label-container {
    fill: #FEF3C7 !important;
    stroke: #FBBF24 !important;
    stroke-width: 1.5px !important;
  }
  /* 円柱/丸角（DB, パスで描画） → エメラルド */
  .flowchart g.node.default g.basic.label-container.outer-path path:nth-of-type(1),
  .flowchart g.node.default .basic.label-container.outer-path path:nth-of-type(1) {
    fill: #ECFDF5 !important;
  }
  .flowchart g.node.default g.basic.label-container.outer-path path:nth-of-type(2),
  .flowchart g.node.default .basic.label-container.outer-path path:nth-of-type(2) {
    stroke: #6EE7B7 !important;
    stroke-width: 1.5px !important;
  }
  /* サブグラフ（クラスタ） → ラベンダーがかった背景 */
  .flowchart g.cluster rect {
    fill: #F5F3FF !important;
    stroke: #C4B5FD !important;
    stroke-dasharray: 4 4 !important;
  }

  /* エッジ: 細めで上品に */
  .edgePath path.path,
  .flowchart-link {
    stroke-width: 1.5px !important;
    stroke-linecap: round !important;
    stroke-linejoin: round !important;
  }

  /* 矢印ヘッド */
  .arrowheadPath,
  marker path {
    stroke-width: 0 !important;
  }

  /* エッジラベル: 白ピル風（flowchart のみ。ER/state/class は記号と被るので除外） */
  .flowchart .edgeLabel { background-color: transparent !important; }
  .flowchart .edgeLabel foreignObject { overflow: visible !important; }
  .flowchart .edgeLabel rect { fill: transparent !important; opacity: 0 !important; }
  .flowchart .edgeLabel .labelBkg,
  .flowchart .edgeLabel foreignObject div.labelBkg {
    background-color: rgba(255, 255, 255, 0.96) !important;
    color: #334155 !important;
    font-size: 12px !important;
    padding: 5px 20px !important;
    border-radius: 999px !important;
    box-shadow: 0 1px 2px rgba(15, 23, 42, 0.06);
    line-height: 1.2 !important;
    white-space: nowrap !important;
    box-sizing: content-box !important;
  }
  .flowchart .edgeLabel .labelBkg span,
  .flowchart .edgeLabel .labelBkg p {
    background-color: transparent !important;
    color: #334155 !important;
    margin: 0 !important;
  }
  /* ER/state/class はピル化せずデフォルトの素な背景のまま（記号と干渉しないように） */

  /* クラスタ（サブグラフ） */
  .cluster rect {
    rx: 18 !important;
    ry: 18 !important;
    filter: drop-shadow(0 1px 2px rgba(15, 23, 42, 0.04));
    stroke-dasharray: 0 !important;
    stroke-width: 1px !important;
  }
  .cluster-label .nodeLabel,
  .cluster text {
    font-weight: 600 !important;
    fill: #0F172A !important;
    color: #0F172A !important;
  }

  /* ラベル類のフォント統一 */
  .nodeLabel,
  .edgeLabel,
  .cluster text,
  .actor,
  text.actor &gt; tspan,
  .messageText,
  .loopText,
  .noteText,
  .labelText,
  .sectionTitle,
  .titleText,
  .taskText,
  .grid text {
    font-family: "Inter", system-ui, sans-serif !important;
  }

  /* シーケンス図: アクターをインディゴのピルに */
  rect.actor,
  .actor {
    fill: #EEF2FF !important;
    stroke: #A5B4FC !important;
    stroke-width: 1.5px !important;
    rx: 12 !important;
    ry: 12 !important;
    filter: drop-shadow(0 2px 6px rgba(99, 102, 241, 0.14));
  }
  .actor-line {
    stroke: #C7D2FE !important;
    stroke-width: 1.5px !important;
    stroke-dasharray: 2 4 !important;
  }
  /* アクティベーション（呼び出し中の縦棒）をアクセント色に */
  rect.activation0, rect.activation1, rect.activation2 {
    fill: #E0E7FF !important;
    stroke: #818CF8 !important;
  }
  /* メッセージ矢印を少しだけコントラスト上げる */
  .messageLine0, .messageLine1, line.messageLine0, line.messageLine1, path.messageLine0, path.messageLine1 {
    stroke: #6366F1 !important;
    stroke-width: 1.5px !important;
  }
  /* ループ/オプト/alt ラベルボックス */
  rect.labelBox {
    fill: #EEF2FF !important;
    stroke: #A5B4FC !important;
    rx: 6 !important;
    ry: 6 !important;
  }

  /* ノートに軽い陰影 */
  .note, g.note rect {
    filter: drop-shadow(0 2px 6px rgba(234, 179, 8, 0.12));
    rx: 10 !important;
    ry: 10 !important;
  }
  .noteText, g.note text {
    font-size: 13px !important;
    font-weight: 500 !important;
  }

  /* ===== class diagram (mermaid v11: path 2 枚重ね構造) ===== */
  /* 1 枚目 path = 塗り、2 枚目 path = 手書き風アウトライン */
  .classDiagram g.node.default g.basic.label-container.outer-path path:nth-of-type(1) {
    fill: #E0E7FF !important;
  }
  .classDiagram g.node.default g.basic.label-container.outer-path path:nth-of-type(2) {
    stroke: #818CF8 !important;
    stroke-width: 1.8px !important;
  }
  .classDiagram g.node.default g.basic.label-container {
    filter: drop-shadow(0 2px 4px rgba(15, 23, 42, 0.06)) drop-shadow(0 12px 28px rgba(99, 102, 241, 0.20));
  }
  /* 区切り線もインディゴ系、すこし濃く */
  .classDiagram g.divider path {
    stroke: #A5B4FC !important;
    stroke-width: 1.4px !important;
  }
  /* タイトル（クラス名）をアクセントカラーに（幅計算済みのためサイズは据え置き） */
  .classDiagram g.label-group .nodeLabel p,
  .classDiagram g.label-group .nodeLabel span,
  .classDiagram g.label-group foreignObject div {
    color: #4338CA !important;
  }
  /* members / methods は本文色 */
  .classDiagram g.members-group .nodeLabel p,
  .classDiagram g.methods-group .nodeLabel p,
  .classDiagram g.members-group .nodeLabel span,
  .classDiagram g.methods-group .nodeLabel span {
    color: #1E293B !important;
  }
  /* relation エッジ */
  .classDiagram .relation {
    stroke: #94A3B8 !important;
    stroke-width: 1.3px !important;
    stroke-linecap: round !important;
  }

  /* ===== state diagram ===== */
  g.stateGroup rect,
  .node.statediagram-state rect,
  .node rect.state,
  rect.state,
  g.node.statediagram-state &gt; rect,
  .statediagram-state &gt; rect {
    rx: 14 !important;
    ry: 14 !important;
    fill: #EEF2FF !important;
    stroke: #C7D2FE !important;
    stroke-width: 1.2px !important;
    filter: drop-shadow(0 1px 2px rgba(15, 23, 42, 0.05)) drop-shadow(0 6px 14px rgba(99, 102, 241, 0.10));
  }
  g.stateGroup .title text,
  .stateLabel,
  .statediagram-state text,
  g.node.statediagram-state text {
    font-weight: 600 !important;
    fill: #1E293B !important;
    font-size: 14px !important;
  }
  /* 開始ノード: 濃いインディゴ + グロー */
  circle.start,
  .node circle.start,
  g.node.statediagram-state circle.start,
  g.statediagram-cluster circle.start,
  [id$="-start"] circle,
  g.node[id*="start"] &gt; circle {
    fill: #6366F1 !important;
    stroke: #FFFFFF !important;
    stroke-width: 3px !important;
    r: 10 !important;
    filter: drop-shadow(0 2px 6px rgba(99, 102, 241, 0.45));
  }
  /* 終了ノード: 二重丸、濃い外枠 */
  circle.end,
  .node circle.end,
  [id$="-end"] circle,
  g.node[id*="end"] &gt; circle {
    fill: #FFFFFF !important;
    stroke: #475569 !important;
    stroke-width: 2px !important;
  }
  circle.end-inner,
  g.node[id*="end"] circle.end-inner {
    fill: #475569 !important;
  }
  .transition,
  .edgePath .path.transition,
  path.transition {
    stroke: #64748B !important;
    stroke-width: 1.4px !important;
    stroke-linecap: round !important;
    opacity: 0.9 !important;
  }
  /* トランジション矢印とラベル */
  .statediagram .edgeLabel {
    background-color: rgba(255, 255, 255, 0.96) !important;
  }

  /* ===== ER diagram (mermaid v11: outer-path + row-rect) ===== */
  /* エンティティ外枠: 塗り＋手書き風アウトラインの 2 枚構造 */
  .erDiagram g.node.default g.outer-path path:nth-of-type(1) {
    fill: #EEF2FF !important;
  }
  .erDiagram g.node.default g.outer-path path:nth-of-type(2) {
    stroke: #C7D2FE !important;
    stroke-width: 1.3px !important;
  }
  .erDiagram g.node.default g.outer-path {
    filter: drop-shadow(0 1px 2px rgba(15, 23, 42, 0.05)) drop-shadow(0 8px 20px rgba(99, 102, 241, 0.12));
  }
  /* 属性行: 白と slate-50 の交互塗り */
  .erDiagram g.row-rect-odd path:nth-of-type(1) {
    fill: #FFFFFF !important;
  }
  .erDiagram g.row-rect-even path:nth-of-type(1) {
    fill: #F8FAFC !important;
  }
  .erDiagram g.row-rect-odd path:nth-of-type(2),
  .erDiagram g.row-rect-even path:nth-of-type(2) {
    stroke: #E2E8F0 !important;
    stroke-width: 1px !important;
  }
  /* エンティティ名: 幅計算済みのため色のみ上書き */
  .erDiagram g.label.name .nodeLabel p,
  .erDiagram g.label.name .nodeLabel span,
  .erDiagram g.label.name foreignObject div {
    color: #4338CA !important;
    font-weight: 700 !important;
  }
  /* 属性テキスト */
  .erDiagram g.label.attribute-type .nodeLabel p,
  .erDiagram g.label.attribute-name .nodeLabel p,
  .erDiagram g.label.attribute-comment .nodeLabel p {
    color: #334155 !important;
  }
  .erDiagram g.label.attribute-keys .nodeLabel p {
    color: #6366F1 !important;
    font-weight: 600 !important;
  }
  /* リレーション線 */
  .erDiagram .relationshipLine {
    stroke: #94A3B8 !important;
    stroke-width: 1.3px !important;
  }

  /* ===== quadrant ===== */
  .quadrant-external-border-rect {
    rx: 10 !important;
    ry: 10 !important;
    stroke-width: 1.2px !important;
    filter: drop-shadow(0 2px 8px rgba(15, 23, 42, 0.06));
  }
  .quadrant-title {
    font-weight: 700 !important;
    font-size: 18px !important;
    fill: #0F172A !important;
  }
  .quadrant-point text,
  text.quadrant-point-text {
    font-weight: 500 !important;
    fill: #0F172A !important;
  }
  circle.quadrant-point,
  .quadrant-point circle {
    r: 7 !important;
    fill: #6366F1 !important;
    stroke: #FFFFFF !important;
    stroke-width: 2.5px !important;
    filter: drop-shadow(0 2px 4px rgba(99, 102, 241, 0.35));
  }

  /* ===== pie (洗練された Chart.js 風) ===== */
  g[id^="pie"] .pieCircle,
  .pieCircle {
    stroke: #FFFFFF !important;
    stroke-width: 4px !important;
    stroke-linejoin: round !important;
    filter:
      drop-shadow(0 1px 2px rgba(15, 23, 42, 0.04))
      drop-shadow(0 14px 32px rgba(15, 23, 42, 0.10));
  }
  .pieOuterCircle {
    stroke: transparent !important;
    fill: transparent !important;
  }
  .pieTitleText {
    font-weight: 700 !important;
    font-size: 20px !important;
    fill: #0F172A !important;
    letter-spacing: -0.2px !important;
  }
  text.slice {
    font-weight: 700 !important;
    font-size: 14px !important;
    fill: #FFFFFF !important;
    paint-order: stroke;
    stroke: rgba(15, 23, 42, 0.35);
    stroke-width: 0.5px;
    letter-spacing: -0.2px !important;
  }
  /* 凡例を丸いドット風に */
  .legend rect {
    rx: 6 !important;
    ry: 6 !important;
    stroke: transparent !important;
    width: 12 !important;
    height: 12 !important;
    filter: drop-shadow(0 1px 1px rgba(15, 23, 42, 0.12));
  }
  .legend text, text.legend {
    font-size: 13px !important;
    fill: #1E293B !important;
    font-weight: 500 !important;
    letter-spacing: 0.1px !important;
  }

  /* ===== mindmap ===== */
  .mindmap-node &gt; rect,
  .mindmap-node &gt; circle,
  .mindmap-node &gt; ellipse,
  .mindmap-node &gt; polygon,
  .mindmap-node &gt; path {
    stroke-width: 0 !important;
    filter:
      drop-shadow(0 1px 2px rgba(15, 23, 42, 0.06))
      drop-shadow(0 8px 20px rgba(15, 23, 42, 0.08));
  }
  .mindmap-node [class^="node-line"] {
    stroke-width: 2px !important;
    stroke-linecap: round !important;
    opacity: 0.35 !important;
  }
  /* エッジ（ブランチの線）を色とトーンで統一 */
  g.edge path,
  .edge path,
  .section-edge-0, .section-edge-1, .section-edge-2, .section-edge-3,
  .section-edge-4, .section-edge-5, .section-edge-6, .section-edge-7 {
    stroke-width: 1.4px !important;
    stroke-linecap: round !important;
    opacity: 0.7 !important;
  }
  /* ルートノードを際立たせる */
  g.mindmap-node.section-root circle,
  g.mindmap-node.section-root rect,
  g.mindmap-node.section-root ellipse,
  g.mindmap-node.section--1 circle,
  g.mindmap-node.section--1 rect {
    fill: #6366F1 !important;
    filter: drop-shadow(0 6px 18px rgba(99, 102, 241, 0.35));
  }
  g.mindmap-node text,
  g.mindmap-node .nodeLabel,
  g.mindmap-node .nodeLabel span {
    font-weight: 500 !important;
    color: #FFFFFF !important;
    fill: #FFFFFF !important;
  }

  /* ===== timeline ===== */
  .timeline-node rect,
  g.timeline-node &gt; rect,
  g.timeline-node foreignObject {
    filter: drop-shadow(0 3px 10px rgba(15, 23, 42, 0.10));
  }
  .timeline-node .node-bkg,
  g.timeline-node rect {
    rx: 14 !important;
    ry: 14 !important;
    stroke-width: 0 !important;
  }
  .timeline-node text,
  .timeline-node .nodeLabel,
  .timeline-node .nodeLabel span,
  g.timeline-node text,
  g.timeline-node .nodeLabel,
  g.timeline-node .nodeLabel span,
  g.timeline-node foreignObject div,
  g.timeline-node foreignObject span {
    font-weight: 600 !important;
    color: #FFFFFF !important;
    fill: #FFFFFF !important;
    font-size: 14px !important;
    letter-spacing: 0.2px !important;
  }
  /* タイムラインの縦接続線: 視認できる濃さにする */
  .lineWrapper line,
  [class^="node-line"] {
    stroke: #64748B !important;
    stroke-width: 1.3px !important;
    stroke-dasharray: 3 3 !important;
    stroke-linecap: round !important;
    opacity: 0.85 !important;
  }
  .sectionTitle {
    font-weight: 700 !important;
    font-size: 15px !important;
    fill: #0F172A !important;
  }
  .titleText {
    font-weight: 700 !important;
    font-size: 20px !important;
    fill: #0F172A !important;
  }
  /* タイムライン軸線 */
  line.timeline-path,
  #arrowhead path {
    stroke: #94A3B8 !important;
    fill: #94A3B8 !important;
    stroke-width: 1.5px !important;
  }

  /* ===== journey (モダンなフラット + 立体感) ===== */
  .task-line,
  .actor-line {
    opacity: 0.85 !important;
    stroke: #64748B !important;
    stroke-dasharray: 3 3 !important;
    stroke-width: 1.2px !important;
    stroke-linecap: round !important;
  }
  .task rect,
  g.task &gt; rect {
    rx: 16 !important;
    ry: 16 !important;
    filter:
      drop-shadow(0 1px 2px rgba(15, 23, 42, 0.04))
      drop-shadow(0 10px 24px rgba(15, 23, 42, 0.08));
    stroke-width: 0 !important;
  }
  .task-type-0 text,
  .task text {
    font-weight: 600 !important;
    font-size: 14px !important;
    fill: #0F172A !important;
    letter-spacing: -0.1px !important;
  }
  /* 顔バッジ: ビビッドな amber-400 ソリッド + 深めの影で立体感 */
  circle.face,
  .face {
    fill: #FBBF24 !important;
    stroke: none !important;
    r: 18 !important;
    filter:
      drop-shadow(0 2px 4px rgba(217, 119, 6, 0.25))
      drop-shadow(0 8px 16px rgba(217, 119, 6, 0.20));
  }
  .mouth {
    stroke: #78350F !important;
    stroke-width: 2.2px !important;
    stroke-linecap: round !important;
    fill: transparent !important;
  }
  .eyes {
    fill: #78350F !important;
    stroke: none !important;
  }
  /* アクター（凡例）ドット: 統一パレットで上品に */
  circle.actor-0 { fill: #818CF8 !important; }
  circle.actor-1 { fill: #34D399 !important; }
  circle.actor-2 { fill: #F472B6 !important; }
  circle.actor-3 { fill: #FBBF24 !important; }
  circle.actor-4 { fill: #60A5FA !important; }
  circle.actor-5 { fill: #A78BFA !important; }
  circle.actor-0, circle.actor-1, circle.actor-2,
  circle.actor-3, circle.actor-4, circle.actor-5 {
    stroke: #FFFFFF !important;
    stroke-width: 2px !important;
    filter: drop-shadow(0 2px 4px rgba(15, 23, 42, 0.14));
  }
  .legend text {
    font-weight: 500 !important;
    font-size: 13px !important;
    fill: #1E293B !important;
    letter-spacing: 0.1px !important;
  }
  /* セクションバーはやや濃く、タスクは淡く。立体感を出す */
  .section-type-0 { fill: #C7D2FE !important; }
  .section-type-1 { fill: #DDD6FE !important; }
  .section-type-2 { fill: #FBCFE8 !important; }
  .section-type-3 { fill: #FDE68A !important; }
  .section-type-4 { fill: #A7F3D0 !important; }
  .section-type-5 { fill: #A5F3FC !important; }
  .task-type-0 { fill: #EEF2FF !important; }
  .task-type-1 { fill: #F5F3FF !important; }
  .task-type-2 { fill: #FDF2F8 !important; }
  .task-type-3 { fill: #FFFBEB !important; }
  .task-type-4 { fill: #ECFDF5 !important; }
  .task-type-5 { fill: #ECFEFF !important; }
  g[class*="section-type"] &gt; rect,
  .section-type-0, .section-type-1, .section-type-2,
  .section-type-3, .section-type-4, .section-type-5 {
    stroke-width: 0 !important;
  }
  .journey-section text {
    font-weight: 700 !important;
    font-size: 15px !important;
    fill: #0F172A !important;
    letter-spacing: -0.1px !important;
  }

  /* ===== gantt ===== */
  /* 背景のグレーを消し、セクションごとに淡いパステル帯を敷く */
  .mermaid &gt; svg &gt; g &gt; rect:first-child,
  rect.background,
  rect.sectionBar {
    fill: #FFFFFF !important;
    stroke: transparent !important;
  }
  rect.section0, rect.section2,
  g.section0 rect.section, g.section2 rect.section {
    fill: #EEF2FF !important;
  }
  rect.section1, rect.section3,
  g.section1 rect.section, g.section3 rect.section {
    fill: #FDF2F8 !important;
  }
  .grid .tick line {
    stroke: #E2E8F0 !important;
    stroke-dasharray: 2 3 !important;
  }
  .grid path { stroke: transparent !important; }
  .grid text {
    fill: #64748B !important;
    font-size: 11px !important;
  }
  /* タスクバー: ソフトなパステルに */
  .task0, .task2 { fill: #C7D2FE !important; stroke: #818CF8 !important; }
  .task1, .task3 { fill: #DDD6FE !important; stroke: #A78BFA !important; }
  .task-type-0, .task-type-1, .task-type-2, .task-type-3,
  rect.task0, rect.task1, rect.task2, rect.task3 {
    stroke-width: 1px !important;
    rx: 8 !important;
    ry: 8 !important;
    filter: drop-shadow(0 1px 2px rgba(15, 23, 42, 0.06));
  }
  .done0, .done1, .done2, .done3 {
    fill: #A7F3D0 !important;
    stroke: #34D399 !important;
  }
  .crit0, .crit1, .crit2, .crit3,
  .active0, .active1, .active2, .active3 {
    fill: #FECACA !important;
    stroke: #F87171 !important;
  }
  .taskText, .taskTextOutsideRight, .taskTextOutsideLeft {
    font-size: 12px !important;
    font-weight: 500 !important;
    fill: #0F172A !important;
  }
  .sectionTitle0, .sectionTitle1, .sectionTitle2, .sectionTitle3,
  text.sectionTitle {
    font-weight: 700 !important;
    font-size: 13px !important;
    fill: #0F172A !important;
  }
  line.today {
    stroke: #F43F5E !important;
    stroke-width: 2px !important;
    stroke-dasharray: 4 4 !important;
  }

  /* ===== gitgraph ===== */
  .branch-label rect, .commit-label rect, .tag-label rect {
    rx: 8 !important;
    ry: 8 !important;
    stroke-width: 0 !important;
    filter: drop-shadow(0 1px 2px rgba(15, 23, 42, 0.08));
  }
  .branch-label text {
    font-weight: 600 !important;
    fill: #FFFFFF !important;
  }
  .tag-label text {
    font-weight: 600 !important;
    font-size: 12px !important;
  }
  .commit-label text {
    font-size: 11px !important;
    fill: #334155 !important;
  }
  /* ブランチ線を立体的に */
  .branch0, .branch1, .branch2, .branch3,
  .branch4, .branch5, .branch6, .branch7 {
    stroke-width: 4px !important;
    stroke-linecap: round !important;
  }
  /* コミット点 */
  circle.commit, .commit {
    stroke-width: 3px !important;
    stroke: #FFFFFF !important;
  }
</style></svg>